<mxfile host="app.diagrams.net" modified="2023-09-16T18:38:14.230Z" agent="Mozilla/5.0 (Macintosh; Intel Mac OS X 10_15_7) AppleWebKit/537.36 (KHTML, like Gecko) Chrome/115.0.0.0 Safari/537.36" etag="SO-NehyZc8OdPOJ5NoJV" version="21.7.5" type="device">
  <diagram name="Page-1" id="b5b7bab2-c9e2-2cf4-8b2a-24fd1a2a6d21">
    <mxGraphModel dx="954" dy="610" grid="1" gridSize="10" guides="1" tooltips="1" connect="1" arrows="1" fold="1" page="1" pageScale="1" pageWidth="827" pageHeight="1169" background="none" math="0" shadow="0">
      <root>
        <mxCell id="0" />
        <mxCell id="1" parent="0" />
        <mxCell id="r5E5_MeqpVeRxFzNVkB7-11" value="&amp;laquo;Annotation&amp;raquo;&lt;br/&gt;&lt;b&gt;Component&lt;/b&gt;" style="html=1;dropTarget=0;whiteSpace=wrap;" vertex="1" parent="1">
          <mxGeometry x="60" y="240" width="180" height="90" as="geometry" />
        </mxCell>
        <mxCell id="r5E5_MeqpVeRxFzNVkB7-12" value="" style="shape=module;jettyWidth=8;jettyHeight=4;" vertex="1" parent="r5E5_MeqpVeRxFzNVkB7-11">
          <mxGeometry x="1" width="20" height="20" relative="1" as="geometry">
            <mxPoint x="-27" y="7" as="offset" />
          </mxGeometry>
        </mxCell>
        <mxCell id="r5E5_MeqpVeRxFzNVkB7-13" value="&lt;p style=&quot;margin:0px;margin-top:6px;text-align:center;&quot;&gt;&lt;b&gt;Component&lt;/b&gt;&lt;/p&gt;&lt;hr/&gt;&lt;p style=&quot;margin:0px;margin-left:8px;&quot;&gt;+ Attribute1: Type&lt;br/&gt;+ Attribute2: Type&lt;/p&gt;" style="align=left;overflow=fill;html=1;dropTarget=0;whiteSpace=wrap;" vertex="1" parent="1">
          <mxGeometry x="60" y="240" width="180" height="90" as="geometry" />
        </mxCell>
        <mxCell id="r5E5_MeqpVeRxFzNVkB7-14" value="" style="shape=component;jettyWidth=8;jettyHeight=4;" vertex="1" parent="r5E5_MeqpVeRxFzNVkB7-13">
          <mxGeometry x="1" width="20" height="20" relative="1" as="geometry">
            <mxPoint x="-24" y="4" as="offset" />
          </mxGeometry>
        </mxCell>
        <mxCell id="r5E5_MeqpVeRxFzNVkB7-15" value="column_views" style="html=1;dropTarget=0;whiteSpace=wrap;verticalAlign=top;" vertex="1" parent="1">
          <mxGeometry x="60" y="240" width="430" height="280" as="geometry" />
        </mxCell>
        <mxCell id="r5E5_MeqpVeRxFzNVkB7-16" value="" style="shape=module;jettyWidth=8;jettyHeight=4;" vertex="1" parent="r5E5_MeqpVeRxFzNVkB7-15">
          <mxGeometry x="1" width="20" height="20" relative="1" as="geometry">
            <mxPoint x="-27" y="7" as="offset" />
          </mxGeometry>
        </mxCell>
        <mxCell id="r5E5_MeqpVeRxFzNVkB7-17" value="Module" style="shape=module;align=left;spacingLeft=20;align=center;verticalAlign=top;whiteSpace=wrap;html=1;" vertex="1" parent="1">
          <mxGeometry x="100" y="300" width="100" height="50" as="geometry" />
        </mxCell>
      </root>
    </mxGraphModel>
  </diagram>
</mxfile>
